<?xml version="1.0" encoding="UTF-8" standalone="no"?>
<svg
   xmlns:dc="http://purl.org/dc/elements/1.1/"
   xmlns:cc="http://creativecommons.org/ns#"
   xmlns:rdf="http://www.w3.org/1999/02/22-rdf-syntax-ns#"
   xmlns:svg="http://www.w3.org/2000/svg"
   xmlns="http://www.w3.org/2000/svg"
   xmlns:sodipodi="http://sodipodi.sourceforge.net/DTD/sodipodi-0.dtd"
   xmlns:inkscape="http://www.inkscape.org/namespaces/inkscape"
   version="1.1"
   id="svg1026"
   xml:space="preserve"
   width="800"
   height="800"
   viewBox="0 0 800 800"
   sodipodi:docname="icon.svg"
   inkscape:version="1.0.2 (e86c870879, 2021-01-15)"><metadata
     id="metadata1032"><rdf:RDF><cc:Work
         rdf:about=""><dc:format>image/svg+xml</dc:format><dc:type
           rdf:resource="http://purl.org/dc/dcmitype/StillImage" /><dc:title></dc:title></cc:Work></rdf:RDF></metadata><defs
     id="defs1030"><clipPath
       clipPathUnits="userSpaceOnUse"
       id="clipPath1042"><path
         d="M 0,600 H 600 V 0 H 0 Z"
         id="path1040" /></clipPath></defs><sodipodi:namedview
     pagecolor="#ffffff"
     bordercolor="#666666"
     borderopacity="1"
     objecttolerance="10"
     gridtolerance="10"
     guidetolerance="10"
     inkscape:pageopacity="0"
     inkscape:pageshadow="2"
     inkscape:window-width="1920"
     inkscape:window-height="1020"
     id="namedview1028"
     showgrid="false"
     inkscape:zoom="0.54"
     inkscape:cx="808.39818"
     inkscape:cy="605.07169"
     inkscape:window-x="0"
     inkscape:window-y="26"
     inkscape:window-maximized="1"
     inkscape:current-layer="g1034" /><g
     id="g1034"
     inkscape:groupmode="layer"
     inkscape:label="snake-dagger-publicdomainvectors.org"
     transform="matrix(1.3333333,0,0,-1.3333333,0,800)"><g
       id="g1036"
       transform="matrix(0.84930541,0.84997095,-0.84930541,0.84997094,367.09987,-221.74104)"><g
         id="g1388"
         transform="matrix(0.79405858,0,0,0.79405858,-126.97866,35.032793)"><path
           id="path10"
           style="fill:#000000;fill-rule:evenodd;stroke-width:0.749999"
           d="m 595.56449,559.69169 c -5.33341,-2.11856 -10.65736,-4.1957 -15.93748,-6.08936 -6.40472,-2.29698 -12.76935,-4.42928 -19.09571,-6.39551 -6.32636,-1.96622 -12.61474,-3.76674 -18.86281,-5.40234 -6.24804,-1.6356 -12.45572,-3.10554 -18.62546,-4.41065 -6.16978,-1.3051 -12.30109,-2.44566 -18.3926,-3.42041 -6.09152,-0.97474 -12.14346,-1.7842 -18.15673,-2.42871 -6.01328,-0.64451 -11.98727,-1.12406 -17.92236,-1.43848 -5.9351,-0.31441 -11.83107,-0.46379 -17.688,-0.44823 -5.85693,0.0156 -11.67481,0.19661 -17.45362,0.54199 -5.77879,0.34539 -11.51853,0.85566 -17.21923,1.53076 -5.7007,0.6751 -11.36224,1.51486 -16.98486,2.51953 -5.62263,1.00467 -11.20737,2.17419 -16.75196,3.5083 -5.54459,1.33411 -11.04953,2.83218 -16.51612,4.49561 -5.46657,1.66342 -10.89459,3.49176 -16.28319,5.48437 -5.38861,1.9926 -10.73818,4.15003 -16.04884,6.47168 -3.82697,1.67303 -7.60997,3.53067 -11.39648,5.37451 A 137.01939,137.01939 0 0 1 458.89311,432.43486 137.01939,137.01939 0 0 1 595.56449,559.69169 Z" /><path
           id="path14"
           style="fill:#000000;fill-rule:evenodd;stroke-width:0.749999"
           d="m 458.6366,719.22153 a 137.01939,137.01939 0 0 1 -137.01856,-137.02002 137.01939,137.01939 0 0 1 0.35449,-9.87012 c 3.78651,-1.84385 7.56951,-3.70149 11.39648,-5.37452 5.31066,-2.32164 10.66023,-4.47907 16.04884,-6.47167 5.3886,-1.99261 10.81662,-3.82095 16.28319,-5.48438 5.46659,-1.66342 10.97153,-3.1615 16.51612,-4.4956 5.54459,-1.33412 11.12933,-2.50364 16.75196,-3.50831 5.62262,-1.00467 11.28416,-1.84443 16.98486,-2.51953 5.7007,-0.67509 11.44044,-1.18537 17.21923,-1.53076 5.77881,-0.34539 11.59669,-0.52643 17.45362,-0.54199 5.85693,-0.0156 11.7529,0.13383 17.688,0.44824 5.9351,0.31441 11.90908,0.79396 17.92236,1.43848 6.01328,0.64451 12.06522,1.45396 18.15673,2.42871 6.09151,0.97474 12.22282,2.1153 18.3926,3.42041 6.16975,1.3051 12.37742,2.77504 18.62546,4.41064 6.24807,1.6356 12.53645,3.43612 18.86281,5.40234 6.32637,1.96623 12.691,4.09853 19.09571,6.39552 5.28012,1.89366 10.60407,3.9708 15.93748,6.08935 a 137.01939,137.01939 0 0 1 0.34864,9.76319 137.01939,137.01939 0 0 1 -137.02002,137.02002 z" /><path
           style="fill:#000000;fill-opacity:1;stroke:#000000;stroke-width:0.924993px;stroke-linecap:butt;stroke-linejoin:miter;stroke-opacity:1"
           d="m 379.26357,441.69927 c 47.89444,-26.10187 97.32429,-41.09097 154.74562,1.75975 L 502.26093,50.116484 C 476.98168,26.639862 451.43133,24.155862 425.52531,49.213195 Z"
           id="path17"
           sodipodi:nodetypes="ccccc" /></g></g><g
       id="g1038"
       clip-path="url(#clipPath1042)"
       transform="matrix(0.97701959,0.766749,-0.97701959,0.76674899,396.65074,-212.47695)"><path
         d="m 445.921,554.672 h 2.014 c 1.73,0 3.421,-0.255 5.035,-0.745 1.627,-0.492 3.144,-1.225 4.519,-2.176 3.938,-2.723 8.43,-3.996 12.865,-3.84 4.42,0.155 8.803,1.74 12.538,4.73 5.476,4.388 15.416,5.904 21.908,3.355 -6.283,-0.539 -11.067,-2.367 -16.444,-5.71 4.51,-4.341 9.735,-8.744 16.354,-8.744 -7.877,-2.431 -14.803,-0.145 -20.545,5.728 -4.172,-2.789 -8.885,-4.275 -13.652,-4.443 -5.498,-0.193 -11.055,1.378 -15.914,4.738 -0.95,0.657 -1.993,1.162 -3.104,1.498 -1.094,0.332 -2.289,0.505 -3.56,0.505 h -2.014 z"
         style="fill:#f68294;fill-opacity:1;fill-rule:evenodd;stroke:none"
         id="path1094" /><path
         d="m 332.187,140.951 c -11.59,-28.031 -32.523,-48.283 -69.669,-54.89 -26.987,-4.799 -55.48,-2.772 -79.913,14.043 -24.276,16.707 -41.385,40.562 -49.916,67.171 -8.535,26.623 -8.485,55.995 1.558,83.717 0.608,1.678 1.296,3.447 2.063,5.305 0.862,2.088 1.617,3.828 2.261,5.215 l 30.836,-14.221 c -0.747,-1.605 -1.324,-2.902 -1.73,-3.887 -0.494,-1.197 -1.006,-2.521 -1.532,-3.976 -7.416,-20.469 -7.456,-42.147 -1.159,-61.785 6.3,-19.653 18.944,-37.28 36.89,-49.629 16.696,-11.491 36.708,-18.793 55.333,-15.481 26.848,4.776 47.228,15.375 62.259,34.059 1.613,2.004 3.926,3.127 6.314,3.285 2.295,0.152 4.342,-0.814 5.682,-2.684 1.342,-1.869 1.601,-4.117 0.723,-6.242"
         style="fill:#267837;fill-opacity:1;fill-rule:evenodd;stroke:none"
         id="path1096" /><path
         d="m 127.548,190.359 c -2.57,19.977 -0.511,40.729 6.699,60.633 0.608,1.678 1.296,3.447 2.063,5.305 0.862,2.088 1.617,3.828 2.261,5.215 l 23.881,-11.014 3.693,-11.07 c -6.405,-17.68 -7.307,-36.26 -3.376,-53.653 h -0.001 c -2.941,11.844 -30.175,33.082 -35.22,4.584"
         style="fill:#216731;fill-opacity:1;fill-rule:evenodd;stroke:none"
         id="path1098" /><path
         d="m 307.78,134.568 c 2.623,2.225 5.125,4.616 7.506,7.18 0.955,-0.941 1.549,-2.25 1.549,-3.699 0,-2.869 -2.328,-5.197 -5.197,-5.197 -1.532,0 -2.909,0.662 -3.858,1.716 m -13.125,-9.175 c 3.271,1.869 6.386,3.92 9.358,6.162 0.642,-0.912 1.019,-2.026 1.019,-3.227 0,-3.094 -2.508,-5.601 -5.602,-5.601 -2.02,0 -3.789,1.066 -4.775,2.666 m -15.162,-6.989 c 3.845,1.407 7.521,2.994 11.033,4.77 0.361,-0.774 0.564,-1.635 0.564,-2.545 0,-3.32 -2.691,-6.012 -6.012,-6.012 -2.535,0 -4.702,1.569 -5.585,3.787 m -16.775,-4.789 c 4.312,0.93 8.447,2.024 12.409,3.293 0.165,-0.57 0.256,-1.172 0.256,-1.795 0,-3.547 -2.875,-6.42 -6.421,-6.42 -3.029,0 -5.568,2.1 -6.244,4.922 m -18.116,-1.785 c 4.235,-0.246 8.457,-0.037 12.607,0.703 0.333,0.059 0.662,0.119 0.992,0.18 0.035,-0.285 0.054,-0.572 0.054,-0.867 0,-3.77 -3.057,-6.826 -6.827,-6.826 -3.765,0 -6.819,3.046 -6.826,6.81 m -18.714,3.842 c 4.633,-1.596 9.34,-2.758 14.05,-3.391 -0.632,-3.351 -3.575,-5.885 -7.107,-5.885 -3.998,0 -7.235,3.241 -7.235,7.235 0,0.709 0.102,1.392 0.292,2.041 m -18.187,8.59 c 4.394,-2.641 8.966,-4.969 13.64,-6.877 -1.208,-2.633 -3.865,-4.463 -6.951,-4.463 -4.22,0 -7.642,3.422 -7.642,7.642 0,1.342 0.346,2.602 0.953,3.698 m -16.974,12.715 c 3.448,-3.223 7.169,-6.225 11.149,-8.963 0.491,-0.336 0.983,-0.67 1.478,-1 -1.462,-2.018 -3.838,-3.33 -6.521,-3.33 -4.445,0 -8.049,3.603 -8.049,8.048 0,2.004 0.732,3.836 1.943,5.245 m -14.468,17.134 c 3.085,-4.675 6.6,-9.103 10.521,-13.222 -1.485,-1.295 -3.427,-2.078 -5.552,-2.078 -4.671,0 -8.457,3.787 -8.457,8.457 0,2.814 1.374,5.306 3.488,6.843 m -10.539,21.338 c 1.937,-5.576 4.389,-10.978 7.333,-16.125 -1.211,-0.623 -2.583,-0.97 -4.038,-0.97 -4.895,0 -8.865,3.966 -8.865,8.863 0,3.73 2.306,6.924 5.57,8.232 m -5.079,24.832 c 0.428,-6.193 1.457,-12.312 3.059,-18.269 -0.636,-0.139 -1.295,-0.211 -1.971,-0.211 -5.121,0 -9.272,4.15 -9.272,9.271 0,4.754 3.576,8.67 8.184,9.209"
         style="fill:#fab40a;fill-opacity:1;fill-rule:evenodd;stroke:none"
         id="path1100" /><path
         d="m 138.571,261.512 c 11.523,24.773 30.265,44.71 53.009,57.769 22.528,12.936 49.055,19.135 76.434,16.598 20.866,-1.934 39.999,-10.242 55.245,-23.11 15.26,-12.882 26.664,-30.322 32.056,-50.507 5.389,-20.17 4.198,-40.985 -2.611,-59.783 -6.807,-18.788 -19.23,-35.532 -36.31,-47.586 -13.832,-9.762 -29.538,-15.618 -45.619,-17.557 -10.502,-1.266 -21.175,-0.85 -31.598,1.246 l 4.288,33.84 c 7.637,-1.824 15.541,-2.266 23.324,-1.326 10.593,1.277 20.945,5.136 30.066,11.574 11.271,7.955 19.466,18.994 23.951,31.371 4.478,12.363 5.25,26.094 1.681,39.449 -3.566,13.344 -11.093,24.864 -21.159,33.362 -10.083,8.509 -22.681,14 -36.37,15.269 -20.162,1.868 -39.774,-2.741 -56.497,-12.346 -16.788,-9.638 -30.598,-24.302 -39.054,-42.484 z"
         style="fill:#2f9a3f;fill-opacity:1;fill-rule:evenodd;stroke:none"
         id="path1150" /><path
         d="m 147.473,277.57 c 8.479,13.03 19.137,24.281 31.352,33.351 -9.773,-10.758 -8.77,-49.448 9.545,-36.521 -7.736,-7.74 -14.2,-16.867 -18.963,-27.109 l -18.542,8.549 z"
         style="fill:#277a37;fill-opacity:1;fill-rule:evenodd;stroke:none"
         id="path1152" /><path
         d="m 242.517,164.938 0.948,7.484 c 4.934,-1.178 9.979,-1.779 15.032,-1.805 -0.356,-4.797 -4.36,-8.578 -9.247,-8.578 -2.651,0 -5.042,1.113 -6.733,2.899 m -45.882,116.824 c -4.833,-3.828 -9.304,-8.129 -13.338,-12.852 -1.795,1.692 -2.916,4.088 -2.916,6.75 0,5.121 4.152,9.272 9.273,9.272 2.784,0 5.281,-1.227 6.981,-3.17 m 20.836,12.58 c -3.084,-1.363 -6.092,-2.889 -9.01,-4.567 -2.443,-1.402 -4.824,-2.912 -7.133,-4.523 -0.898,1.428 -1.418,3.119 -1.418,4.932 0,5.119 4.152,9.271 9.273,9.271 3.626,0 6.763,-2.082 8.288,-5.113 m 23.325,6.944 c -6.147,-1.002 -12.141,-2.6 -17.908,-4.743 -0.282,0.885 -0.432,1.828 -0.432,2.806 0,5.12 4.15,9.273 9.272,9.273 4.456,0 8.178,-3.144 9.068,-7.336 m 24.321,0.818 -0.159,0.017 c -6.196,0.574 -12.339,0.534 -18.364,-0.071 -0.007,0.158 -0.011,0.317 -0.011,0.476 0,5.12 4.151,9.272 9.271,9.272 5.123,0 9.273,-4.152 9.273,-9.272 0,-0.141 -0.003,-0.281 -0.01,-0.422 m 23.318,-6.729 c -5.472,2.76 -11.362,4.772 -17.531,5.917 1.035,3.991 4.662,6.937 8.975,6.937 5.121,0 9.272,-4.151 9.272,-9.274 0,-1.267 -0.255,-2.476 -0.716,-3.58 m 19.293,-14.713 c -1.995,2.207 -4.133,4.276 -6.4,6.19 -2.459,2.074 -5.064,3.968 -7.802,5.666 1.685,2.328 4.423,3.843 7.515,3.843 5.122,0 9.272,-4.152 9.272,-9.273 0,-2.494 -0.984,-4.758 -2.585,-6.426 m 12.666,-20.695 c -2.233,5.867 -5.264,11.304 -8.948,16.191 1.451,0.946 3.184,1.492 5.043,1.492 5.121,0 9.274,-4.15 9.274,-9.271 0,-3.727 -2.2,-6.94 -5.369,-8.412 m 4.337,-23.873 c 0.03,5.775 -0.701,11.621 -2.244,17.396 -0.084,0.313 -0.17,0.623 -0.258,0.934 0.612,0.127 1.245,0.193 1.895,0.193 5.121,0 9.272,-4.15 9.272,-9.271 0,-4.916 -3.829,-8.94 -8.665,-9.252 m -4.597,-23.826 c 0.232,0.587 0.455,1.179 0.672,1.773 1.884,5.207 3.113,10.656 3.636,16.219 4.399,-0.725 7.754,-4.543 7.754,-9.147 0,-5.123 -4.15,-9.273 -9.271,-9.273 -0.973,0 -1.91,0.15 -2.791,0.428 m -12.922,-20.534 c 4.248,4.586 7.783,9.713 10.537,15.205 2.719,-1.617 4.539,-4.584 4.539,-7.974 0,-5.121 -4.15,-9.274 -9.271,-9.274 -2.198,0 -4.215,0.766 -5.805,2.043 m -19.484,-14.463 c 3.147,1.534 6.201,3.333 9.127,5.399 2.184,1.541 4.254,3.199 6.203,4.961 1.234,-1.576 1.97,-3.561 1.97,-5.717 0,-5.121 -4.151,-9.273 -9.272,-9.273 -3.429,0 -6.423,1.863 -8.028,4.63 m -108.09,87.075 c -3.684,-4.895 -6.922,-10.182 -9.643,-15.817 -2.881,1.573 -4.835,4.629 -4.835,8.143 0,5.121 4.151,9.273 9.273,9.273 1.929,0 3.721,-0.59 5.205,-1.599 m 84.694,-93.5 c 0.82,0.068 1.638,0.15 2.457,0.25 5.295,0.636 10.533,1.922 15.585,3.851 0.256,-0.851 0.395,-1.754 0.395,-2.687 0,-5.121 -4.151,-9.272 -9.272,-9.272 -4.641,0 -8.485,3.407 -9.165,7.858"
         style="fill:#fab40a;fill-opacity:1;fill-rule:evenodd;stroke:none"
         id="path1154" /><path
         d="m 217.335,145.689 c -1.752,0.811 -3.531,1.698 -5.338,2.657 l -0.027,-0.051 c -3.1,1.648 -6.35,3.637 -9.742,5.971 -23.335,16.058 -41.456,37.757 -53.133,62.488 -11.699,24.777 -16.955,52.545 -14.535,80.695 2.428,28.236 12.35,54.745 28.107,77.161 15.734,22.384 37.294,40.675 63.02,52.511 9.722,4.473 17.829,11.358 23.692,19.757 5.842,8.372 9.499,18.341 10.346,29.011 1.092,13.773 4.942,27.082 11.18,39.208 6.179,12.011 14.776,22.854 25.423,31.814 10.657,8.969 22.818,15.594 35.714,19.635 12.887,4.038 26.627,5.536 40.449,4.255 l -3.056,-33.759 c -9.235,0.856 -18.508,-0.173 -27.291,-2.925 -8.776,-2.749 -16.956,-7.179 -24.018,-13.122 -7.072,-5.953 -12.84,-13.265 -17.05,-21.449 -4.152,-8.07 -6.72,-17.002 -7.458,-26.316 -1.325,-16.677 -7.143,-32.404 -16.461,-45.757 -9.301,-13.323 -22.048,-24.193 -37.249,-31.187 -20.193,-9.291 -37.116,-23.647 -49.464,-41.213 -12.326,-17.536 -20.09,-38.292 -21.991,-60.417 -1.911,-22.215 2.192,-44.035 11.343,-63.416 7.477,-15.836 18.31,-30.082 31.973,-41.631 z"
         style="fill:#2f9a3f;fill-opacity:1;fill-rule:evenodd;stroke:none"
         id="path1156" /><path
         d="m 204.918,195.855 c 2.197,-2.158 4.48,-4.244 6.851,-6.246 l 1.166,-9.201 c -0.382,-0.047 -0.77,-0.072 -1.166,-0.072 -5.121,0 -9.272,4.152 -9.272,9.273 0,2.407 0.918,4.598 2.421,6.246 m -15.576,18.672 c 3.462,-5.095 7.314,-9.947 11.533,-14.504 -1.622,-1.394 -3.731,-2.236 -6.037,-2.236 -5.122,0 -9.273,4.152 -9.273,9.274 0,3.062 1.486,5.779 3.777,7.466 m -11.623,21.362 c 0.66,-1.565 1.353,-3.114 2.077,-4.649 1.915,-4.056 4.051,-8.008 6.397,-11.836 -1.342,-0.756 -2.893,-1.187 -4.544,-1.187 -5.121,0 -9.272,4.15 -9.272,9.271 0,3.715 2.186,6.92 5.342,8.401 m -7.206,23.222 c 1.247,-6.082 2.946,-12.041 5.074,-17.826 -0.904,-0.295 -1.87,-0.455 -2.873,-0.455 -5.121,0 -9.272,4.152 -9.272,9.272 0,4.363 3.013,8.021 7.071,9.009 m -2.517,24.184 c 0.033,-6.232 0.536,-12.406 1.485,-18.473 -0.357,-0.041 -0.72,-0.064 -1.089,-0.064 -5.121,0 -9.272,4.152 -9.272,9.273 0,4.989 3.939,9.055 8.876,9.264 m 2.244,24.214 c -0.815,-4.222 -1.414,-8.511 -1.787,-12.853 -0.161,-1.855 -0.277,-3.709 -0.353,-5.556 -4.781,0.371 -8.544,4.367 -8.544,9.244 0,5.119 4.151,9.272 9.272,9.272 0.48,0 0.951,-0.036 1.412,-0.107 m 6.939,23.305 c -2.328,-5.695 -4.241,-11.589 -5.706,-17.635 -3.894,1.098 -6.748,4.677 -6.748,8.924 0,5.121 4.151,9.273 9.273,9.273 1.117,0 2.189,-0.2 3.181,-0.562 m 11.376,21.49 c -3.412,-5.146 -6.441,-10.552 -9.055,-16.174 -2.996,1.538 -5.046,4.657 -5.046,8.257 0,5.12 4.151,9.272 9.272,9.272 1.77,0 3.423,-0.495 4.829,-1.355 m 15.363,18.845 c -4.368,-4.395 -8.392,-9.105 -12.043,-14.084 -2.14,1.698 -3.513,4.322 -3.513,7.267 0,5.121 4.151,9.272 9.273,9.272 2.425,0 4.632,-0.931 6.283,-2.455 m 18.759,15.473 c -5.165,-3.465 -10.031,-7.298 -14.568,-11.454 -1.375,1.618 -2.204,3.712 -2.204,6 0,5.122 4.152,9.273 9.272,9.273 3.083,0 5.813,-1.505 7.5,-3.819 m 21.341,11.68 c -1.349,-0.704 -2.719,-1.376 -4.11,-2.016 -4.262,-1.961 -8.379,-4.149 -12.337,-6.544 -0.74,1.332 -1.162,2.865 -1.162,4.497 0,5.121 4.151,9.273 9.272,9.273 3.664,0 6.832,-2.125 8.337,-5.21 m 19.865,13.969 c -4.521,-4.167 -9.475,-7.901 -14.809,-11.125 -1.003,1.482 -1.588,3.269 -1.588,5.192 0,5.121 4.151,9.273 9.272,9.273 2.865,0 5.426,-1.299 7.125,-3.34 m 15.564,18.646 c -0.738,-1.165 -1.502,-2.313 -2.29,-3.444 -2.752,-3.94 -5.803,-7.664 -9.131,-11.14 -1.961,1.701 -3.202,4.21 -3.202,7.01 0,5.121 4.152,9.272 9.273,9.272 1.992,0 3.839,-0.629 5.35,-1.698 m 10.234,22.025 c -1.859,-5.926 -4.303,-11.63 -7.279,-17.035 -3.085,1.506 -5.21,4.673 -5.21,8.337 0,5.121 4.151,9.272 9.271,9.272 1.131,0 2.216,-0.203 3.218,-0.574 m 4.318,23.909 c -0.159,-1.2 -0.286,-2.407 -0.381,-3.621 -0.398,-4.999 -1.199,-9.913 -2.377,-14.703 -4.281,0.821 -7.517,4.585 -7.517,9.106 0,5.121 4.151,9.272 9.274,9.272 0.337,0 0.67,-0.018 1.001,-0.054 m 7.294,23.114 -0.217,-0.419 c -2.744,-5.331 -4.795,-11.038 -6.083,-16.982 -3.873,1.113 -6.706,4.681 -6.706,8.912 0,5.121 4.151,9.272 9.272,9.272 1.328,0 2.591,-0.28 3.734,-0.783 m 14.763,19.214 c -4.586,-4.187 -8.569,-8.968 -11.871,-14.194 -2.31,1.686 -3.812,4.415 -3.812,7.494 0,5.121 4.151,9.272 9.271,9.272 2.488,0 4.746,-0.979 6.412,-2.572 m 20.494,12.925 c -5.725,-2.337 -11.131,-5.422 -16.055,-9.204 -0.98,1.472 -1.553,3.238 -1.553,5.139 0,5.121 4.153,9.272 9.274,9.272 3.662,0 6.828,-2.124 8.334,-5.207 m 23.676,5.172 c -6.141,-0.254 -12.221,-1.323 -18.082,-3.159 l -0.145,-0.046 c -0.172,0.707 -0.266,1.446 -0.266,2.205 0,5.121 4.153,9.273 9.274,9.273 4.783,0 8.719,-3.622 9.219,-8.273"
         style="fill:#fab40a;fill-opacity:1;fill-rule:evenodd;stroke:none"
         id="path1158" /><path
         d="m 385.696,582.466 c 5.889,0 11.389,-1.674 16.047,-4.571 9.084,-5.652 18.031,-8.622 28.694,-9.524 l 9.689,-0.821 c 7.422,-0.629 13.086,-6.794 13.086,-14.243 v -2.537 c 0,-7.45 -5.664,-13.615 -13.086,-14.244 l -9.689,-0.819 c -10.663,-0.903 -19.61,-3.873 -28.694,-9.524 -4.658,-2.898 -10.158,-4.573 -16.047,-4.573 -16.804,0 -30.427,13.623 -30.427,30.429 0,16.804 13.623,30.427 30.427,30.427"
         style="fill:#47bc53;fill-opacity:1;fill-rule:evenodd;stroke:none"
         id="path1160" /><path
         d="m 398.753,542.271 c 3.629,0.647 6.572,2.857 6.572,4.936 0,2.078 -2.943,3.24 -6.572,2.592 -3.629,-0.647 -6.57,-2.855 -6.57,-4.934 0,-2.079 2.941,-3.24 6.57,-2.594"
         style="fill:#223625;fill-opacity:1;fill-rule:evenodd;stroke:none"
         id="path1162" /><path
         d="m 398.753,574.273 c 3.629,-0.337 6.572,-1.487 6.572,-2.57 0,-1.082 -2.943,-1.687 -6.572,-1.35 -3.629,0.336 -6.57,1.487 -6.57,2.569 0,1.083 2.941,1.687 6.57,1.351"
         style="fill:#223625;fill-opacity:1;fill-rule:evenodd;stroke:none"
         id="path1164" /></g><path
       style="fill:#000000;fill-opacity:1;stroke:#000000;stroke-width:1.07966px;stroke-linecap:butt;stroke-linejoin:miter;stroke-opacity:1"
       d="m 372.90716,108.92024 69.38455,-54.769282 46.88713,4.621304 30.50718,31.046488 -61.33242,71.22638 -85.44644,-52.12489"
       id="path1428"
       sodipodi:nodetypes="cccccc" /></g></svg>
